<?xml version="1.0" encoding="UTF-8"?>
<svg id="Calque_2" data-name="Calque 2" xmlns="http://www.w3.org/2000/svg" viewBox="0 0 297.3 72.55">
  <defs>
    <style>
      .cls-1 {
        fill: none;
        stroke: #12100b;
        stroke-linecap: round;
        stroke-linejoin: round;
        stroke-width: 0px;
      }
    </style>
  </defs>
  <g id="Calque_1-2" data-name="Calque 1">
    <path class="cls-1" d="M237.87,63.48h11.88c3.97-1.92,7.95-3.83,11.93-5.75"/>
    <path class="cls-1" d="M243.84,60.17c3.97-1.92,7.95-3.83,11.93-5.75h23.78c3.95,1.92,7.89,3.83,11.84,5.75"/>
    <path class="cls-1" d="M285.41,63.48c-3.94-1.92-7.89-3.83-11.84-5.75"/>
    <path class="cls-1" d="M285.41,63.48c-3.98,1.92-7.96,3.83-11.93,5.75"/>
    <line class="cls-1" x1="297.3" y1="63.48" x2="285.41" y2="63.48"/>
    <path class="cls-1" d="M261.6,69.23c-3.95-1.92-7.89-3.83-11.84-5.75"/>
    <path class="cls-1" d="M243.8,66.8c3.95,1.92,7.9,3.83,11.84,5.75"/>
    <path class="cls-1" d="M178.45,63.48h11.88c3.97-1.92,7.93-3.83,11.9-5.75"/>
    <path class="cls-1" d="M184.4,60.17c3.97-1.92,7.93-3.83,11.9-5.75h23.78c3.96,1.92,7.91,3.83,11.86,5.75"/>
    <path class="cls-1" d="M225.99,63.48c-3.95-1.92-7.9-3.83-11.86-5.75"/>
    <path class="cls-1" d="M225.99,63.48c-3.97,1.92-7.94,3.83-11.91,5.75"/>
    <line class="cls-1" x1="237.87" y1="63.48" x2="225.99" y2="63.48"/>
    <path class="cls-1" d="M202.2,69.23c-3.95-1.92-7.91-3.83-11.86-5.75"/>
    <path class="cls-1" d="M231.91,66.8c-3.97,1.92-7.94,3.83-11.91,5.75"/>
    <path class="cls-1" d="M184.39,66.8c3.96,1.92,7.91,3.83,11.86,5.75"/>
    <path class="cls-1" d="M119.03,63.48h11.88c3.96-1.92,7.92-3.83,11.88-5.75"/>
    <path class="cls-1" d="M124.97,60.17c3.96-1.92,7.92-3.83,11.88-5.75h23.78c3.96,1.92,7.92,3.83,11.88,5.75"/>
    <path class="cls-1" d="M166.57,63.48c-3.96-1.92-7.92-3.83-11.88-5.75"/>
    <path class="cls-1" d="M166.57,63.48c-3.96,1.92-7.93,3.83-11.89,5.75"/>
    <line class="cls-1" x1="178.45" y1="63.48" x2="166.57" y2="63.48"/>
    <path class="cls-1" d="M142.8,69.23c-3.96-1.92-7.92-3.83-11.89-5.75"/>
    <path class="cls-1" d="M172.51,66.8c-3.96,1.92-7.93,3.83-11.89,5.75"/>
    <path class="cls-1" d="M124.98,66.8c3.96,1.92,7.93,3.83,11.89,5.75"/>
    <path class="cls-1" d="M59.61,63.48h11.88c3.95-1.92,7.91-3.83,11.86-5.75"/>
    <path class="cls-1" d="M65.53,60.17c3.95-1.92,7.91-3.83,11.86-5.75h23.78c3.97,1.92,7.94,3.83,11.9,5.75"/>
    <path class="cls-1" d="M107.15,63.48c-3.97-1.92-7.93-3.83-11.9-5.75"/>
    <path class="cls-1" d="M107.15,63.48c-3.96,1.92-7.91,3.83-11.86,5.75"/>
    <line class="cls-1" x1="119.03" y1="63.48" x2="107.15" y2="63.48"/>
    <path class="cls-1" d="M83.4,69.23c-3.97-1.92-7.94-3.83-11.91-5.75"/>
    <path class="cls-1" d="M113.1,66.8c-3.96,1.92-7.91,3.83-11.86,5.75"/>
    <path class="cls-1" d="M65.57,66.8c3.97,1.92,7.94,3.83,11.91,5.75"/>
    <path class="cls-1" d="M.19,63.48H12.07c3.94-1.92,7.89-3.83,11.84-5.75"/>
    <path class="cls-1" d="M6.1,60.17c3.94-1.92,7.89-3.83,11.84-5.75h23.78c3.98,1.92,7.95,3.83,11.93,5.75"/>
    <path class="cls-1" d="M47.73,63.48c-3.97-1.92-7.95-3.83-11.93-5.75"/>
    <path class="cls-1" d="M47.73,63.48c-3.95,1.92-7.9,3.83-11.84,5.75"/>
    <line class="cls-1" x1="59.61" y1="63.48" x2="47.73" y2="63.48"/>
    <path class="cls-1" d="M24,69.23c-3.98-1.92-7.95-3.83-11.93-5.75"/>
    <path class="cls-1" d="M53.69,66.8c-3.95,1.92-7.9,3.83-11.84,5.75"/>
    <path class="cls-1" d="M6.16,66.8c3.98,1.92,7.96,3.83,11.93,5.75"/>
    <path class="cls-1" d="M237.95,45.35h11.89c3.97-1.92,7.94-3.83,11.91-5.75"/>
    <path class="cls-1" d="M243.91,42.03c3.97-1.92,7.94-3.83,11.91-5.75h23.79c3.96,1.92,7.92,3.83,11.87,5.75"/>
    <path class="cls-1" d="M285.53,45.35c-3.96-1.92-7.92-3.83-11.87-5.75"/>
    <path class="cls-1" d="M285.53,45.35c-3.97,1.92-7.94,3.83-11.91,5.75"/>
    <path class="cls-1" d="M261.72,51.1c-3.96-1.92-7.92-3.83-11.88-5.75"/>
    <path class="cls-1" d="M291.46,48.67c-3.97,1.92-7.94,3.83-11.91,5.75"/>
    <path class="cls-1" d="M243.89,48.67c3.96,1.92,7.92,3.83,11.88,5.75"/>
    <path class="cls-1" d="M178.48,45.35h11.89c3.97-1.92,7.93-3.83,11.9-5.75"/>
    <path class="cls-1" d="M184.43,42.03c3.97-1.92,7.93-3.83,11.9-5.75h23.79c3.96,1.92,7.92,3.83,11.88,5.75"/>
    <path class="cls-1" d="M226.06,45.35c-3.96-1.92-7.92-3.83-11.88-5.75"/>
    <path class="cls-1" d="M226.06,45.35c-3.97,1.92-7.94,3.83-11.91,5.75"/>
    <line class="cls-1" x1="237.95" y1="45.35" x2="226.06" y2="45.35"/>
    <path class="cls-1" d="M202.26,51.1c-3.96-1.92-7.92-3.83-11.89-5.75"/>
    <path class="cls-1" d="M231.99,48.67c-3.97,1.92-7.94,3.83-11.9,5.75"/>
    <path class="cls-1" d="M184.42,48.67c3.96,1.92,7.92,3.83,11.89,5.75"/>
    <path class="cls-1" d="M119.01,45.35h11.89c3.96-1.92,7.93-3.83,11.89-5.75"/>
    <path class="cls-1" d="M124.95,42.03c3.96-1.92,7.93-3.83,11.89-5.75h23.79c3.97,1.92,7.93,3.83,11.89,5.75"/>
    <path class="cls-1" d="M166.58,45.35c-3.96-1.92-7.93-3.83-11.89-5.75"/>
    <path class="cls-1" d="M166.58,45.35c-3.97,1.92-7.93,3.83-11.89,5.75"/>
    <line class="cls-1" x1="178.48" y1="45.35" x2="166.58" y2="45.35"/>
    <path class="cls-1" d="M142.8,51.1c-3.96-1.92-7.93-3.83-11.9-5.75"/>
    <path class="cls-1" d="M172.53,48.67c-3.97,1.92-7.93,3.83-11.9,5.75"/>
    <path class="cls-1" d="M124.96,48.67c3.97,1.92,7.93,3.83,11.9,5.75"/>
    <path class="cls-1" d="M59.54,45.35h11.89c3.96-1.92,7.92-3.83,11.88-5.75"/>
    <path class="cls-1" d="M65.47,42.03c3.96-1.92,7.92-3.83,11.88-5.75h23.79c3.97,1.92,7.94,3.83,11.9,5.75"/>
    <path class="cls-1" d="M107.11,45.35c-3.97-1.92-7.94-3.83-11.9-5.75"/>
    <path class="cls-1" d="M107.11,45.35c-3.96,1.92-7.92,3.83-11.89,5.75"/>
    <line class="cls-1" x1="119.01" y1="45.35" x2="107.11" y2="45.35"/>
    <path class="cls-1" d="M83.33,51.1c-3.97-1.92-7.94-3.83-11.9-5.75"/>
    <path class="cls-1" d="M113.06,48.67c-3.96,1.92-7.92,3.83-11.89,5.75"/>
    <path class="cls-1" d="M65.49,48.67c3.97,1.92,7.94,3.83,11.9,5.75"/>
    <path class="cls-1" d="M.06,45.35H11.96c3.96-1.92,7.92-3.83,11.87-5.75"/>
    <path class="cls-1" d="M6,42.03c3.96-1.92,7.92-3.83,11.87-5.75h23.79c3.97,1.92,7.94,3.83,11.91,5.75"/>
    <path class="cls-1" d="M47.64,45.35c-3.97-1.92-7.94-3.83-11.91-5.75"/>
    <path class="cls-1" d="M47.64,45.35c-3.96,1.92-7.92,3.83-11.88,5.75"/>
    <line class="cls-1" x1="59.54" y1="45.35" x2="47.64" y2="45.35"/>
    <path class="cls-1" d="M23.87,51.1c-3.97-1.92-7.94-3.83-11.91-5.75"/>
    <path class="cls-1" d="M53.6,48.67c-3.96,1.92-7.92,3.83-11.88,5.75"/>
    <path class="cls-1" d="M6.02,48.67c3.97,1.92,7.94,3.83,11.91,5.75"/>
    <path class="cls-1" d="M237.98,27.21h11.9c3.97-1.92,7.94-3.83,11.9-5.75"/>
    <path class="cls-1" d="M243.93,23.89c3.97-1.92,7.94-3.83,11.9-5.75h23.8c3.96,1.92,7.93,3.83,11.89,5.75"/>
    <path class="cls-1" d="M285.57,27.21c-3.96-1.92-7.93-3.83-11.89-5.75"/>
    <path class="cls-1" d="M285.57,27.21c-3.97,1.92-7.94,3.83-11.9,5.75"/>
    <path class="cls-1" d="M261.77,32.96c-3.96-1.92-7.93-3.83-11.89-5.75"/>
    <path class="cls-1" d="M291.52,30.53c-3.97,1.92-7.94,3.83-11.9,5.75"/>
    <path class="cls-1" d="M243.93,30.53c3.96,1.92,7.93,3.83,11.89,5.75"/>
    <path class="cls-1" d="M178.49,27.21h11.9c3.97-1.92,7.93-3.83,11.9-5.75"/>
    <path class="cls-1" d="M184.44,23.89c3.97-1.92,7.93-3.83,11.9-5.75h23.8c3.97,1.92,7.93,3.83,11.9,5.75"/>
    <path class="cls-1" d="M226.08,27.21c-3.96-1.92-7.93-3.83-11.9-5.75"/>
    <path class="cls-1" d="M226.08,27.21c-3.97,1.92-7.93,3.83-11.9,5.75"/>
    <line class="cls-1" x1="237.98" y1="27.21" x2="226.08" y2="27.21"/>
    <path class="cls-1" d="M202.28,32.96c-3.97-1.92-7.93-3.83-11.9-5.75"/>
    <path class="cls-1" d="M232.03,30.53c-3.97,1.92-7.93,3.83-11.9,5.75"/>
    <path class="cls-1" d="M184.44,30.53c3.97,1.92,7.93,3.83,11.9,5.75"/>
    <path class="cls-1" d="M119,27.21h11.9c3.97-1.92,7.93-3.83,11.9-5.75"/>
    <path class="cls-1" d="M124.94,23.89c3.97-1.92,7.93-3.83,11.9-5.75h23.8c3.97,1.92,7.93,3.83,11.9,5.75"/>
    <path class="cls-1" d="M166.59,27.21c-3.97-1.92-7.93-3.83-11.9-5.75"/>
    <path class="cls-1" d="M166.59,27.21c-3.97,1.92-7.93,3.83-11.9,5.75"/>
    <line class="cls-1" x1="178.49" y1="27.21" x2="166.59" y2="27.21"/>
    <path class="cls-1" d="M142.79,32.96c-3.97-1.92-7.93-3.83-11.9-5.75"/>
    <path class="cls-1" d="M172.54,30.53c-3.97,1.92-7.93,3.83-11.9,5.75"/>
    <path class="cls-1" d="M124.95,30.53c3.97,1.92,7.93,3.83,11.9,5.75"/>
    <path class="cls-1" d="M59.5,27.21h11.9c3.96-1.92,7.93-3.83,11.89-5.75"/>
    <path class="cls-1" d="M65.45,23.89c3.96-1.92,7.93-3.83,11.9-5.75h23.8c3.97,1.92,7.93,3.83,11.9,5.75"/>
    <path class="cls-1" d="M107.1,27.21c-3.97-1.92-7.93-3.83-11.9-5.75"/>
    <path class="cls-1" d="M107.1,27.21c-3.97,1.92-7.93,3.83-11.9,5.75"/>
    <line class="cls-1" x1="119" y1="27.21" x2="107.1" y2="27.21"/>
    <path class="cls-1" d="M83.31,32.96c-3.97-1.92-7.93-3.83-11.9-5.75"/>
    <path class="cls-1" d="M113.05,30.53c-3.97,1.92-7.93,3.83-11.9,5.75"/>
    <path class="cls-1" d="M65.46,30.53c3.97,1.92,7.93,3.83,11.9,5.75"/>
    <path class="cls-1" d="M.01,27.21H11.91c3.96-1.92,7.93-3.83,11.89-5.75"/>
    <path class="cls-1" d="M5.96,23.89c3.96-1.92,7.93-3.83,11.89-5.75h23.8c3.97,1.92,7.94,3.83,11.9,5.75"/>
    <path class="cls-1" d="M47.61,27.21c-3.97-1.92-7.94-3.83-11.9-5.75"/>
    <path class="cls-1" d="M47.61,27.21c-3.96,1.92-7.93,3.83-11.89,5.75"/>
    <line class="cls-1" x1="59.5" y1="27.21" x2="47.61" y2="27.21"/>
    <path class="cls-1" d="M23.82,32.96c-3.97-1.92-7.94-3.83-11.91-5.75"/>
    <path class="cls-1" d="M53.56,30.53c-3.96,1.92-7.93,3.83-11.89,5.75"/>
    <path class="cls-1" d="M5.97,30.53c3.97,1.92,7.94,3.83,11.9,5.75"/>
    <path class="cls-1" d="M237.99,9.07h11.9c3.97-1.92,7.93-3.83,11.9-5.75"/>
    <path class="cls-1" d="M243.94,5.75c3.97-1.92,7.93-3.83,11.9-5.75h23.8c3.97,1.92,7.93,3.83,11.9,5.75"/>
    <path class="cls-1" d="M285.59,9.07c-3.97-1.92-7.93-3.83-11.9-5.75"/>
    <path class="cls-1" d="M285.59,9.07c-3.97,1.92-7.93,3.83-11.9,5.75"/>
    <path class="cls-1" d="M261.79,14.82c-3.97-1.92-7.93-3.83-11.9-5.75"/>
    <path class="cls-1" d="M291.53,12.39c-3.97,1.92-7.93,3.83-11.9,5.75"/>
    <path class="cls-1" d="M243.94,12.39c3.97,1.92,7.93,3.83,11.9,5.75"/>
    <path class="cls-1" d="M178.49,9.07h11.9c3.97-1.92,7.93-3.83,11.9-5.75"/>
    <path class="cls-1" d="M184.44,5.75c3.97-1.92,7.93-3.83,11.9-5.75h23.8c3.97,1.92,7.93,3.83,11.9,5.75"/>
    <path class="cls-1" d="M226.09,9.07c-3.97-1.92-7.93-3.83-11.9-5.75"/>
    <path class="cls-1" d="M226.09,9.07c-3.97,1.92-7.93,3.83-11.9,5.75"/>
    <line class="cls-1" x1="237.99" y1="9.07" x2="226.09" y2="9.07"/>
    <path class="cls-1" d="M202.29,14.82c-3.97-1.92-7.93-3.83-11.9-5.75"/>
    <path class="cls-1" d="M232.04,12.39l-11.9,5.75"/>
    <path class="cls-1" d="M184.44,12.39c3.97,1.92,7.93,3.83,11.9,5.75"/>
    <path class="cls-1" d="M118.99,9.07h11.9c3.97-1.92,7.93-3.83,11.9-5.75"/>
    <path class="cls-1" d="M124.94,5.75c3.97-1.92,7.93-3.83,11.9-5.75h23.8c3.97,1.92,7.93,3.83,11.9,5.75"/>
    <path class="cls-1" d="M166.59,9.07c-3.97-1.92-7.93-3.83-11.9-5.75"/>
    <path class="cls-1" d="M166.59,9.07c-3.97,1.92-7.93,3.83-11.9,5.75"/>
    <line class="cls-1" x1="178.49" y1="9.07" x2="166.59" y2="9.07"/>
    <path class="cls-1" d="M142.79,14.82c-3.97-1.92-7.93-3.83-11.9-5.75"/>
    <path class="cls-1" d="M172.54,12.39c-3.97,1.92-7.93,3.83-11.9,5.75"/>
    <path class="cls-1" d="M124.94,12.39c3.97,1.92,7.93,3.83,11.9,5.75"/>
    <path class="cls-1" d="M59.5,9.07h11.9c3.97-1.92,7.93-3.83,11.9-5.75"/>
    <path class="cls-1" d="M65.45,5.75C69.41,3.83,73.38,1.92,77.35,0h23.8c3.97,1.92,7.93,3.83,11.9,5.75"/>
    <path class="cls-1" d="M107.09,9.07c-3.97-1.92-7.93-3.83-11.9-5.75"/>
    <path class="cls-1" d="M107.09,9.07c-3.97,1.92-7.93,3.83-11.9,5.75"/>
    <line class="cls-1" x1="118.99" y1="9.07" x2="107.09" y2="9.07"/>
    <path class="cls-1" d="M83.3,14.82c-3.97-1.92-7.93-3.83-11.9-5.75"/>
    <path class="cls-1" d="M113.04,12.39c-3.97,1.92-7.93,3.83-11.9,5.75"/>
    <path class="cls-1" d="M65.45,12.39c3.97,1.92,7.93,3.83,11.9,5.75"/>
    <path class="cls-1" d="M0,9.07H11.9c3.97-1.92,7.93-3.83,11.9-5.75"/>
    <path class="cls-1" d="M5.95,5.75C9.92,3.83,13.88,1.92,17.85,0h23.8c3.97,1.92,7.93,3.83,11.9,5.75"/>
    <path class="cls-1" d="M47.6,9.07c-3.97-1.92-7.93-3.83-11.9-5.75"/>
    <path class="cls-1" d="M47.6,9.07c-3.97,1.92-7.93,3.83-11.9,5.75"/>
    <line class="cls-1" x1="59.5" y1="9.07" x2="47.6" y2="9.07"/>
    <path class="cls-1" d="M23.8,14.82c-3.97-1.92-7.93-3.83-11.9-5.75"/>
    <path class="cls-1" d="M53.55,12.39c-3.97,1.92-7.93,3.83-11.9,5.75"/>
    <path class="cls-1" d="M5.95,12.39l11.9,5.75"/>
  </g>
</svg>