<?xml version="1.0" encoding="UTF-8"?>
<svg id="Calque_2" data-name="Calque 2" xmlns="http://www.w3.org/2000/svg" viewBox="0 0 66.13 33.06">
  <defs>
    <style>
      .cls-1 {
        fill: none;
        stroke: #12100b;
        stroke-linecap: round;
        stroke-linejoin: round;
        stroke-width: 0px;
      }
    </style>
  </defs>
  <g id="Calque_1-2" data-name="Calque 1">
    <path class="cls-1" d="M0,24.28c2.58,0,5.17-.52,7.58-1.55,2.99-1.28,5.72-3.36,9.33-4.75,1.67-.64,3.57-.16,4.72,1.21,2.48,2.95,7.29,1.19,7.29-2.66"/>
    <path class="cls-1" d="M28.93,16.53c0-3.86-4.81-5.61-7.29-2.66-1.15,1.37-3.05,1.86-4.72,1.21-3.61-1.39-6.34-3.47-9.33-4.75C5.17,9.3,2.58,8.78,0,8.78"/>
    <path class="cls-1" d="M37.2,16.53c0-3.86,4.81-5.61,7.29-2.66,1.15,1.37,3.05,1.86,4.72,1.21,3.61-1.39,6.34-3.47,9.33-4.75,2.41-1.03,4.99-1.55,7.58-1.55"/>
    <path class="cls-1" d="M66.13,24.28c-2.58,0-5.17-.52-7.58-1.55-2.99-1.28-5.72-3.36-9.33-4.75-1.67-.64-3.57-.16-4.72,1.21-2.48,2.95-7.29,1.19-7.29-2.66"/>
    <path class="cls-1" d="M61.99,33.06c0-3.86-4.81-5.61-7.29-2.66-1.15,1.37-3.05,1.86-4.72,1.22-3.62-1.39-6.34-3.47-9.33-4.75-2.41-1.03-4.99-1.55-7.58-1.55"/>
    <path class="cls-1" d="M4.13,33.06c0-3.86,4.81-5.61,7.29-2.66,1.15,1.37,3.05,1.86,4.72,1.22,3.62-1.39,6.34-3.47,9.33-4.75,2.41-1.03,4.99-1.55,7.58-1.55"/>
    <path class="cls-1" d="M4.13,0c0,3.86,4.81,5.61,7.29,2.66,1.15-1.37,3.05-1.86,4.72-1.21,3.62,1.39,6.34,3.47,9.33,4.75,2.41,1.03,4.99,1.55,7.58,1.55"/>
    <path class="cls-1" d="M61.99,0c0,3.86-4.81,5.61-7.29,2.66-1.15-1.37-3.05-1.86-4.72-1.21-3.62,1.39-6.34,3.47-9.33,4.75-2.41,1.03-4.99,1.55-7.58,1.55"/>
  </g>
</svg>