<?xml version="1.0" encoding="UTF-8"?>
<svg id="Calque_2" data-name="Calque 2" xmlns="http://www.w3.org/2000/svg" viewBox="0 0 45.73 45.73">
  <defs>
    <style>
      .cls-1 {
        fill: none;
        stroke: #12100b;
        stroke-linecap: round;
        stroke-linejoin: round;
        stroke-width: 0px;
      }
    </style>
  </defs>
  <g id="Calque_1-2" data-name="Calque 1">
    <path class="cls-1" d="M5.72,45.73c5.72,0,8.57-5.72,11.91-8.57,3.34-2.86,7.15-2.86,10.48,0,3.33,2.86,6.19,8.57,11.91,8.57"/>
    <path class="cls-1" d="M5.72,0C11.43,0,14.29,5.72,17.62,8.57c3.34,2.86,7.15,2.86,10.48,0C31.44,5.72,34.3,0,40.01,0"/>
    <path class="cls-1" d="M0,33.58c1.79,0,3.57-.71,5.24-2.14,3.33-2.86,6.19-8.57,11.91-8.57"/>
    <path class="cls-1" d="M0,12.15c1.79,0,3.57,.71,5.24,2.14,3.33,2.86,6.19,8.57,11.91,8.57"/>
    <path class="cls-1" d="M45.73,12.15c-1.79,0-3.57,.71-5.24,2.14-3.33,2.86-6.19,8.57-11.91,8.57"/>
    <path class="cls-1" d="M45.73,33.58c-1.79,0-3.57-.71-5.24-2.14-3.33-2.86-6.19-8.57-11.91-8.57"/>
  </g>
</svg>