<?xml version="1.0" encoding="UTF-8"?>
<svg id="Calque_2" data-name="Calque 2" xmlns="http://www.w3.org/2000/svg" viewBox="0 0 66.45 38.37">
  <defs>
    <style>
      .cls-1 {
        fill: none;
        stroke: #12100b;
        stroke-linecap: round;
        stroke-linejoin: round;
        stroke-width: 0px;
      }
    </style>
  </defs>
  <g id="Calque_1-2" data-name="Calque 1">
    <line class="cls-1" x1="56.86" y1="0" x2="56.86" y2=".96"/>
    <line class="cls-1" x1="60.7" y1="0" x2="60.7" y2="7.48"/>
    <line class="cls-1" x1="64.53" y1="0" x2="64.53" y2="14.01"/>
    <line class="cls-1" x1="50.67" y1="10.07" x2="66.45" y2="19.18"/>
    <line class="cls-1" x1="66.45" y1="19.18" x2="66.45" y2=".96"/>
    <line class="cls-1" x1="33.23" y1="0" x2="49.01" y2="9.11"/>
    <line class="cls-1" x1="58.78" y1=".96" x2="58.78" y2="5.89"/>
    <line class="cls-1" x1="58.78" y1="5.89" x2="54.5" y2="3.43"/>
    <line class="cls-1" x1="53.8" y1=".81" x2="54.63" y2="1.29"/>
    <line class="cls-1" x1="54.63" y1="1.29" x2="55.46" y2="1.77"/>
    <line class="cls-1" x1="38.67" y1=".93" x2="50.8" y2="7.93"/>
    <line class="cls-1" x1="50.8" y1="7.93" x2="62.92" y2="14.93"/>
    <line class="cls-1" x1="46.24" y1=".87" x2="52.72" y2="4.61"/>
    <line class="cls-1" x1="52.72" y1="4.61" x2="59.19" y2="8.35"/>
    <line class="cls-1" x1="62.61" y1=".96" x2="62.61" y2="12.54"/>
    <line class="cls-1" x1="62.61" y1="12.54" x2="52.59" y2="6.75"/>
    <line class="cls-1" x1="50.93" y1="5.79" x2="40.9" y2="0"/>
    <line class="cls-1" x1="52.84" y1="2.47" x2="48.57" y2="0"/>
    <line class="cls-1" x1="50.67" y1="28.3" x2="66.45" y2="19.18"/>
    <line class="cls-1" x1="66.45" y1="19.18" x2="66.45" y2="37.41"/>
    <line class="cls-1" x1="49.01" y1="29.25" x2="33.23" y2="38.37"/>
    <line class="cls-1" x1="17.44" y1="9.11" x2="33.23" y2="0"/>
    <line class="cls-1" x1="33.23" y1="0" x2="33.23" y2="18.23"/>
    <line class="cls-1" x1="15.78" y1="10.07" x2="0" y2="19.18"/>
    <line class="cls-1" x1="0" y1="19.18" x2="15.78" y2="28.3"/>
    <line class="cls-1" x1="17.44" y1="29.25" x2="33.23" y2="38.37"/>
    <line class="cls-1" x1="33.23" y1="38.37" x2="33.23" y2="20.14"/>
    <line class="cls-1" x1="19.62" y1="21.65" x2="15.35" y2="19.18"/>
    <line class="cls-1" x1="15.35" y1="19.18" x2="19.62" y2="16.72"/>
    <line class="cls-1" x1="17.7" y1="24.97" x2="7.67" y2="19.18"/>
    <line class="cls-1" x1="7.67" y1="19.18" x2="17.7" y2="13.39"/>
    <line class="cls-1" x1="29.39" y1="18.23" x2="29.39" y2="6.65"/>
    <line class="cls-1" x1="29.39" y1="6.65" x2="19.36" y2="12.44"/>
    <line class="cls-1" x1="29.39" y1="20.14" x2="29.39" y2="31.72"/>
    <line class="cls-1" x1="29.39" y1="31.72" x2="19.36" y2="25.93"/>
    <line class="cls-1" x1="29.7" y1="4.25" x2="17.57" y2="11.25"/>
    <line class="cls-1" x1="17.57" y1="11.25" x2="5.44" y2="18.26"/>
    <line class="cls-1" x1="13.01" y1="20.05" x2="19.49" y2="23.79"/>
    <line class="cls-1" x1="19.49" y1="23.79" x2="25.97" y2="27.53"/>
    <line class="cls-1" x1="5.44" y1="20.11" x2="17.57" y2="27.11"/>
    <line class="cls-1" x1="17.57" y1="27.11" x2="29.7" y2="34.12"/>
    <line class="cls-1" x1="20.58" y1="19.99" x2="21.41" y2="20.47"/>
    <line class="cls-1" x1="21.41" y1="20.47" x2="22.24" y2="20.95"/>
    <line class="cls-1" x1="25.55" y1="20.14" x2="25.55" y2="25.08"/>
    <line class="cls-1" x1="25.55" y1="25.08" x2="21.28" y2="22.61"/>
    <line class="cls-1" x1="22.24" y1="17.42" x2="21.41" y2="17.9"/>
    <line class="cls-1" x1="21.41" y1="17.9" x2="20.58" y2="18.38"/>
    <line class="cls-1" x1="31.31" y1="5.18" x2="31.31" y2="19.18"/>
    <line class="cls-1" x1="31.31" y1="19.18" x2="31.31" y2="33.19"/>
    <line class="cls-1" x1="25.97" y1="10.84" x2="19.49" y2="14.58"/>
    <line class="cls-1" x1="19.49" y1="14.58" x2="13.01" y2="18.32"/>
    <line class="cls-1" x1="27.47" y1="11.7" x2="27.47" y2="19.18"/>
    <line class="cls-1" x1="27.47" y1="19.18" x2="27.47" y2="26.66"/>
    <line class="cls-1" x1="25.55" y1="18.23" x2="25.55" y2="13.29"/>
    <line class="cls-1" x1="25.55" y1="13.29" x2="21.28" y2="15.76"/>
    <line class="cls-1" x1="23.63" y1="18.23" x2="23.63" y2="19.18"/>
    <line class="cls-1" x1="23.63" y1="19.18" x2="23.63" y2="20.14"/>
    <line class="cls-1" x1="48.57" y1="38.37" x2="52.84" y2="35.9"/>
    <line class="cls-1" x1="40.9" y1="38.37" x2="50.93" y2="32.58"/>
    <line class="cls-1" x1="62.61" y1="37.41" x2="62.61" y2="25.83"/>
    <line class="cls-1" x1="62.61" y1="25.83" x2="52.59" y2="31.62"/>
    <line class="cls-1" x1="62.92" y1="23.43" x2="50.8" y2="30.44"/>
    <line class="cls-1" x1="50.8" y1="30.44" x2="38.67" y2="37.44"/>
    <line class="cls-1" x1="55.46" y1="36.6" x2="54.63" y2="37.08"/>
    <line class="cls-1" x1="54.63" y1="37.08" x2="53.8" y2="37.56"/>
    <line class="cls-1" x1="64.53" y1="24.36" x2="64.53" y2="38.37"/>
    <line class="cls-1" x1="59.19" y1="30.02" x2="52.72" y2="33.76"/>
    <line class="cls-1" x1="52.72" y1="33.76" x2="46.24" y2="37.5"/>
    <line class="cls-1" x1="60.7" y1="30.88" x2="60.7" y2="38.37"/>
    <line class="cls-1" x1="58.78" y1="37.41" x2="58.78" y2="32.47"/>
    <line class="cls-1" x1="58.78" y1="32.47" x2="54.5" y2="34.94"/>
    <line class="cls-1" x1="56.86" y1="37.41" x2="56.86" y2="38.37"/>
    <line class="cls-1" x1="5.76" y1="0" x2="5.76" y2="7.48"/>
    <line class="cls-1" x1="9.59" y1="0" x2="9.59" y2=".96"/>
    <line class="cls-1" x1="17.88" y1="0" x2="13.61" y2="2.47"/>
    <line class="cls-1" x1="10.99" y1="1.77" x2="11.82" y2="1.29"/>
    <line class="cls-1" x1="11.82" y1="1.29" x2="12.65" y2=".81"/>
    <line class="cls-1" x1="3.53" y1="14.93" x2="15.65" y2="7.93"/>
    <line class="cls-1" x1="15.65" y1="7.93" x2="27.78" y2=".93"/>
    <line class="cls-1" x1="7.26" y1="8.35" x2="13.73" y2="4.61"/>
    <line class="cls-1" x1="13.73" y1="4.61" x2="20.21" y2=".87"/>
    <line class="cls-1" x1="1.92" y1="0" x2="1.92" y2="14.01"/>
    <line class="cls-1" x1="25.55" y1="0" x2="15.53" y2="5.79"/>
    <line class="cls-1" x1="13.86" y1="6.75" x2="3.84" y2="12.54"/>
    <line class="cls-1" x1="3.84" y1="12.54" x2="3.84" y2=".96"/>
    <line class="cls-1" x1="11.95" y1="3.43" x2="7.67" y2="5.89"/>
    <line class="cls-1" x1="7.67" y1="5.89" x2="7.67" y2=".96"/>
    <line class="cls-1" x1="45.17" y1="22.61" x2="40.9" y2="25.08"/>
    <line class="cls-1" x1="40.9" y1="25.08" x2="40.9" y2="20.14"/>
    <line class="cls-1" x1="47.09" y1="25.93" x2="37.06" y2="31.72"/>
    <line class="cls-1" x1="37.06" y1="31.72" x2="37.06" y2="20.14"/>
    <line class="cls-1" x1="47.09" y1="12.44" x2="37.06" y2="6.65"/>
    <line class="cls-1" x1="37.06" y1="6.65" x2="37.06" y2="18.23"/>
    <line class="cls-1" x1="48.75" y1="13.39" x2="58.78" y2="19.18"/>
    <line class="cls-1" x1="58.78" y1="19.18" x2="48.75" y2="24.97"/>
    <line class="cls-1" x1="35.14" y1="5.18" x2="35.14" y2="19.18"/>
    <line class="cls-1" x1="35.14" y1="19.18" x2="35.14" y2="33.19"/>
    <line class="cls-1" x1="40.48" y1="27.53" x2="46.96" y2="23.79"/>
    <line class="cls-1" x1="46.96" y1="23.79" x2="53.44" y2="20.05"/>
    <line class="cls-1" x1="36.75" y1="34.12" x2="48.88" y2="27.11"/>
    <line class="cls-1" x1="48.88" y1="27.11" x2="61.01" y2="20.11"/>
    <line class="cls-1" x1="44.21" y1="20.95" x2="45.04" y2="20.47"/>
    <line class="cls-1" x1="45.04" y1="20.47" x2="45.87" y2="19.99"/>
    <line class="cls-1" x1="46.83" y1="16.72" x2="51.1" y2="19.18"/>
    <line class="cls-1" x1="51.1" y1="19.18" x2="46.83" y2="21.65"/>
    <line class="cls-1" x1="42.82" y1="18.23" x2="42.82" y2="19.18"/>
    <line class="cls-1" x1="42.82" y1="19.18" x2="42.82" y2="20.14"/>
    <line class="cls-1" x1="36.75" y1="4.25" x2="48.88" y2="11.25"/>
    <line class="cls-1" x1="48.88" y1="11.25" x2="61.01" y2="18.26"/>
    <line class="cls-1" x1="38.98" y1="11.7" x2="38.98" y2="19.18"/>
    <line class="cls-1" x1="38.98" y1="19.18" x2="38.98" y2="26.66"/>
    <line class="cls-1" x1="40.48" y1="10.84" x2="46.96" y2="14.58"/>
    <line class="cls-1" x1="46.96" y1="14.58" x2="53.44" y2="18.32"/>
    <line class="cls-1" x1="45.17" y1="15.76" x2="40.9" y2="13.29"/>
    <line class="cls-1" x1="40.9" y1="13.29" x2="40.9" y2="18.23"/>
    <line class="cls-1" x1="44.21" y1="17.42" x2="45.04" y2="17.9"/>
    <line class="cls-1" x1="45.04" y1="17.9" x2="45.87" y2="18.38"/>
    <line class="cls-1" x1="13.86" y1="31.62" x2="3.84" y2="25.83"/>
    <line class="cls-1" x1="3.84" y1="25.83" x2="3.84" y2="37.41"/>
    <line class="cls-1" x1="15.53" y1="32.58" x2="25.55" y2="38.37"/>
    <line class="cls-1" x1="1.92" y1="24.36" x2="1.92" y2="38.37"/>
    <line class="cls-1" x1="13.61" y1="35.9" x2="17.88" y2="38.37"/>
    <line class="cls-1" x1="9.59" y1="37.41" x2="9.59" y2="38.37"/>
    <line class="cls-1" x1="3.53" y1="23.43" x2="15.65" y2="30.44"/>
    <line class="cls-1" x1="15.65" y1="30.44" x2="27.78" y2="37.44"/>
    <line class="cls-1" x1="5.76" y1="30.88" x2="5.76" y2="38.37"/>
    <line class="cls-1" x1="7.26" y1="30.02" x2="13.73" y2="33.76"/>
    <line class="cls-1" x1="13.73" y1="33.76" x2="20.21" y2="37.5"/>
    <line class="cls-1" x1="11.95" y1="34.94" x2="7.67" y2="32.47"/>
    <line class="cls-1" x1="7.67" y1="32.47" x2="7.67" y2="37.41"/>
    <line class="cls-1" x1="10.99" y1="36.6" x2="11.82" y2="37.08"/>
    <line class="cls-1" x1="11.82" y1="37.08" x2="12.65" y2="37.56"/>
  </g>
</svg>