<?xml version="1.0" encoding="UTF-8"?>
<svg id="Calque_2" data-name="Calque 2" xmlns="http://www.w3.org/2000/svg" viewBox="0 0 60.82 17.67">
  <defs>
    <style>
      .cls-1 {
        fill: none;
        stroke: #1d1d1b;
        stroke-miterlimit: 10;
      }
    </style>
  </defs>
  <g id="Calque_2-2" data-name="Calque 2">
    <g id="Calque_1-2" data-name="Calque 1-2">
      <path class="cls-1" d="M.04,15.37c2.18,0,3.95,.85,3.95,1.91m56.79-1.91c-2.18,0-3.95,.85-3.95,1.91m-3.14,0v-.11c0-1.08-1.71-1.98-4.13-2.18l-7.51-.63-11.64-.97-11.64,.97-7.51,.63c-2.42,.2-4.13,1.11-4.13,2.18v.11M.04,2.3c2.18,0,3.95-.85,3.95-1.91m56.79,1.91c-2.18,0-3.95-.85-3.95-1.91m-3.14,0v.11c0,1.08-1.71,1.98-4.13,2.18l-7.51,.63-11.64,.97-11.64-.97-7.51-.63c-2.42-.2-4.13-1.11-4.13-2.18v-.11M60.78,4.94l-11.64,.97-7.51,.63c-2.42,.2-4.13,1.11-4.13,2.18v.22c0,1.08,1.71,1.98,4.13,2.18l7.51,.63,11.64,.97m-26.42-3.89c0,1.05-1.77,1.91-3.95,1.91s-3.95-.85-3.95-1.91,1.77-1.91,3.95-1.91,3.95,.85,3.95,1.91ZM.04,12.73l11.64-.97,7.51-.63c2.42-.2,4.13-1.11,4.13-2.18v-.22c0-1.08-1.71-1.98-4.13-2.18l-7.51-.63L.04,4.94"/>
    </g>
  </g>
</svg>