<?xml version="1.0" encoding="UTF-8"?>
<svg id="Calque_2" data-name="Calque 2" xmlns="http://www.w3.org/2000/svg" viewBox="0 0 61.58 18.66">
  <defs>
    <style>
      .cls-1 {
        fill: none;
        stroke: #1d1d1b;
        stroke-miterlimit: 10;
      }
    </style>
  </defs>
  <g id="Calque_2-2" data-name="Calque 2">
    <g id="Calque_1-2" data-name="Calque 1-2">
      <path class="cls-1" d="M58.26,18.54c-.76-2.94-5.14-2.14-9.77-1.9-2.46,.13-4.92-1.19-7.92-1.31-3.01-.12-8.27,.74-9.78-1.48-1.51,2.22-6.78,1.36-9.78,1.48-3.01,.12-5.46,1.44-7.92,1.31-4.63-.24-9.01-1.04-9.77,1.9M58.26,.13c-.76,2.94-5.14,2.14-9.77,1.9-2.46-.13-4.92,1.19-7.92,1.31-3.01,.12-8.27-.74-9.78,1.48-1.51-2.22-6.78-1.36-9.78-1.48s-5.46-1.44-7.92-1.31C8.45,2.27,4.07,3.07,3.31,.13M61.16,4.65c-1.51,2.22-6.78,1.36-9.78,1.48-3.01,.12-5.46,1.44-7.92,1.31-4.63-.24-9.01-1.04-9.77,1.9,.76,2.94,5.14,2.14,9.77,1.9,2.46-.13,4.92,1.19,7.92,1.31,3.01,.12,8.27-.74,9.78,1.48M.41,4.65c1.51,2.22,6.78,1.36,9.78,1.48,3.01,.12,5.46,1.44,7.92,1.31,4.63-.24,9.01-1.04,9.77,1.9-.76,2.94-5.14,2.14-9.77,1.9-2.46-.13-4.92,1.19-7.92,1.31-3.01,.12-8.27-.74-9.78,1.48"/>
    </g>
  </g>
</svg>