<?xml version="1.0" encoding="UTF-8"?>
<svg id="Calque_2" data-name="Calque 2" xmlns="http://www.w3.org/2000/svg" viewBox="0 0 45.73 14.61">
  <defs>
    <style>
      .cls-1 {
        fill: none;
        stroke: #1d1d1b;
        stroke-miterlimit: 10;
      }
    </style>
  </defs>
  <g id="Calque_2-2" data-name="Calque 2">
    <g id="Calque_1-2" data-name="Calque 1-2">
      <g>
        <path class="cls-1" d="M5.72,14.11c5.72,0,8.57-1.7,11.91-2.55,3.33-.85,7.15-.85,10.48,0s6.19,2.55,11.91,2.55"/>
        <path class="cls-1" d="M5.72,.5c5.72,0,8.57,1.71,11.91,2.56,3.33,.85,7.15,.85,10.48,0,3.33-.85,6.19-2.56,11.91-2.56"/>
        <path class="cls-1" d="M0,10.5c1.79,0,3.57-.21,5.24-.64,3.33-.85,6.19-2.55,11.91-2.55"/>
        <path class="cls-1" d="M0,4.12c1.79,0,3.57,.21,5.24,.64,3.33,.85,6.19,2.55,11.91,2.55"/>
        <path class="cls-1" d="M45.73,4.12c-1.79,0-3.57,.21-5.24,.64-3.33,.85-6.19,2.55-11.91,2.55"/>
        <path class="cls-1" d="M45.73,10.5c-1.79,0-3.57-.21-5.24-.64-3.33-.85-6.19-2.55-11.91-2.55"/>
      </g>
    </g>
  </g>
</svg>