<?xml version="1.0" encoding="UTF-8" standalone="no"?>
<!-- Created with Inkscape (http://www.inkscape.org/) -->

<svg
   width="21.692287mm"
   height="5.5844269mm"
   viewBox="0 0 21.692287 5.5844269"
   version="1.1"
   id="svg5"
   xmlns="http://www.w3.org/2000/svg"
   xmlns:svg="http://www.w3.org/2000/svg">
  <defs
     id="defs2" />
  <g
     id="layer1"
     transform="translate(-61.277151,-156.49285)">
    <path
       style="fill:none;stroke:#000000;stroke-width:0.352778px;stroke-linecap:butt;stroke-linejoin:miter;stroke-miterlimit:10;stroke-dasharray:none;stroke-opacity:1"
       d="m 82.045169,162.06263 c -0.08819,-1.05834 -4.850694,-0.61736 -4.938889,-0.61736 -3.086805,0.17638 -4.145139,0.26458 -4.938889,-0.70556 -0.881945,0.97014 -1.940278,0.88194 -5.027083,0.70556 -0.08819,0 -4.850695,-0.44098 -4.938889,0.61736 m 19.84375,-5.55625 c -0.08819,1.14652 -4.850694,0.70555 -4.938889,0.70555 -3.086805,-0.17639 -4.145139,-0.26458 -4.938889,0.61736 -0.881945,-0.88194 -1.940278,-0.79375 -5.027083,-0.61736 -0.08819,0 -4.850695,0.44097 -4.938889,-0.70555 m 20.6375,1.4993 c -0.881944,0.88195 -1.940278,0.88195 -4.938889,0.61736 -0.08819,0 -4.850694,-0.44097 -5.027083,0.70556 0.176389,1.05833 4.938889,0.61736 5.027083,0.61736 2.998611,-0.17639 4.056945,-0.26458 4.938889,0.70556 m -21.43125,-2.64584 c 0.881944,0.88195 1.940277,0.88195 4.938889,0.61736 0.08819,0 4.850694,-0.44097 5.027083,0.70556 -0.176389,1.05833 -4.938889,0.61736 -5.027083,0.61736 -2.998612,-0.17639 -4.056945,-0.26458 -4.938889,0.70556"
       id="path28" />
  </g>
</svg>
