<?xml version="1.0" encoding="UTF-8"?>
<svg id="Calque_2" data-name="Calque 2" xmlns="http://www.w3.org/2000/svg" viewBox="0 0 60.83 18.73">
  <defs>
    <style>
      .cls-1 {
        fill: none;
        stroke: #1d1d1b;
        stroke-miterlimit: 10;
      }
    </style>
  </defs>
  <g id="Calque_2-2" data-name="Calque 2">
    <g id="Calque_1-2" data-name="Calque 1-2">
      <path class="cls-1" d="M.04,5.66l19.15,1.44c2.62,.2,4.13,1.04,4.13,2.06s-1.51,1.87-4.13,2.06L.04,12.67m7.09,5.66v-.1c0-.97,1.71-1.78,4.13-1.97l18.2-1.37c.66-.05,1.25-.05,1.91,0l18.2,1.37c2.42,.18,4.13,1,4.13,1.97v.1m7.09-5.66l-19.15-1.44c-2.62-.2-4.13-1.04-4.13-2.06s1.51-1.87,4.13-2.06l19.15-1.44M53.7,0c0,1.02-1.51,1.87-4.13,2.06l-18.2,1.37c-.66,.05-1.25,.05-1.91,0L11.26,2.06c-2.62-.2-4.13-1.04-4.13-2.06"/>
    </g>
  </g>
</svg>