<?xml version="1.0" encoding="UTF-8"?>
<svg id="Calque_2" data-name="Calque 2" xmlns="http://www.w3.org/2000/svg" viewBox="0 0 39.24 33.98">
  <defs>
    <style>
      .cls-1 {
        fill: none;
        stroke: #1d1d1b;
        stroke-miterlimit: 10;
      }
    </style>
  </defs>
  <g id="Calque_2-2" data-name="Calque 2">
    <g id="Calque_1-2" data-name="Calque 1-2">
      <g>
        <line class="cls-1" x1="38.8" y1="23.89" x2="37.84" y2="23.89"/>
        <line class="cls-1" x1="38.8" y1="27.73" x2="31.32" y2="27.73"/>
        <line class="cls-1" x1="38.8" y1="31.56" x2="24.8" y2="31.56"/>
        <line class="cls-1" x1="28.73" y1="17.7" x2="19.62" y2="33.48"/>
        <line class="cls-1" x1="19.62" y1="33.48" x2="37.84" y2="33.48"/>
        <line class="cls-1" x1="38.8" y1=".25" x2="29.69" y2="16.04"/>
        <line class="cls-1" x1="37.84" y1="25.81" x2="32.91" y2="25.81"/>
        <line class="cls-1" x1="32.91" y1="25.81" x2="35.38" y2="21.53"/>
        <line class="cls-1" x1="37.99" y1="20.83" x2="37.52" y2="21.66"/>
        <line class="cls-1" x1="37.52" y1="21.66" x2="37.04" y2="22.49"/>
        <line class="cls-1" x1="37.87" y1="5.7" x2="30.87" y2="17.83"/>
        <line class="cls-1" x1="30.87" y1="17.83" x2="23.87" y2="29.95"/>
        <line class="cls-1" x1="37.93" y1="13.27" x2="34.19" y2="19.75"/>
        <line class="cls-1" x1="34.19" y1="19.75" x2="30.45" y2="26.22"/>
        <line class="cls-1" x1="37.84" y1="29.64" x2="26.26" y2="29.64"/>
        <line class="cls-1" x1="26.26" y1="29.64" x2="32.05" y2="19.62"/>
        <line class="cls-1" x1="33.01" y1="17.96" x2="38.8" y2="7.93"/>
        <line class="cls-1" x1="36.33" y1="19.87" x2="38.8" y2="15.6"/>
        <line class="cls-1" x1="10.51" y1="17.7" x2="19.62" y2="33.48"/>
        <line class="cls-1" x1="19.62" y1="33.48" x2="1.39" y2="33.48"/>
        <line class="cls-1" x1="9.55" y1="16.04" x2=".43" y2=".25"/>
        <line class="cls-1" x1=".43" y1="15.6" x2="2.9" y2="19.87"/>
        <line class="cls-1" x1=".43" y1="7.93" x2="6.22" y2="17.96"/>
        <line class="cls-1" x1="1.39" y1="29.64" x2="12.97" y2="29.64"/>
        <line class="cls-1" x1="12.97" y1="29.64" x2="7.18" y2="19.62"/>
        <line class="cls-1" x1="15.37" y1="29.95" x2="8.37" y2="17.83"/>
        <line class="cls-1" x1="8.37" y1="17.83" x2="1.36" y2="5.7"/>
        <line class="cls-1" x1="2.2" y1="22.49" x2="1.72" y2="21.66"/>
        <line class="cls-1" x1="1.72" y1="21.66" x2="1.24" y2="20.83"/>
        <line class="cls-1" x1="14.44" y1="31.56" x2=".43" y2="31.56"/>
        <line class="cls-1" x1="8.78" y1="26.22" x2="5.04" y2="19.75"/>
        <line class="cls-1" x1="5.04" y1="19.75" x2="1.3" y2="13.27"/>
        <line class="cls-1" x1="7.92" y1="27.73" x2=".43" y2="27.73"/>
        <line class="cls-1" x1="1.39" y1="25.81" x2="6.33" y2="25.81"/>
        <line class="cls-1" x1="6.33" y1="25.81" x2="3.86" y2="21.53"/>
        <line class="cls-1" x1="1.39" y1="23.89" x2=".43" y2="23.89"/>
        <line class="cls-1" x1="16.19" y1="12.2" x2="13.73" y2="7.93"/>
        <line class="cls-1" x1="13.73" y1="7.93" x2="18.66" y2="7.93"/>
        <line class="cls-1" x1="12.87" y1="14.12" x2="7.08" y2="4.09"/>
        <line class="cls-1" x1="7.08" y1="4.09" x2="18.66" y2="4.09"/>
        <line class="cls-1" x1="26.37" y1="14.12" x2="32.15" y2="4.09"/>
        <line class="cls-1" x1="32.15" y1="4.09" x2="20.58" y2="4.09"/>
        <line class="cls-1" x1="25.41" y1="15.78" x2="19.62" y2="25.81"/>
        <line class="cls-1" x1="19.62" y1="25.81" x2="13.83" y2="15.78"/>
        <line class="cls-1" x1="33.62" y1="2.17" x2="19.62" y2="2.17"/>
        <line class="cls-1" x1="19.62" y1="2.17" x2="5.61" y2="2.17"/>
        <line class="cls-1" x1="11.27" y1="7.51" x2="15.01" y2="13.99"/>
        <line class="cls-1" x1="15.01" y1="13.99" x2="18.75" y2="20.47"/>
        <line class="cls-1" x1="4.69" y1="3.78" x2="11.69" y2="15.91"/>
        <line class="cls-1" x1="11.69" y1="15.91" x2="18.69" y2="28.04"/>
        <line class="cls-1" x1="17.85" y1="11.24" x2="18.33" y2="12.07"/>
        <line class="cls-1" x1="18.33" y1="12.07" x2="18.81" y2="12.9"/>
        <line class="cls-1" x1="22.08" y1="13.86" x2="19.62" y2="18.13"/>
        <line class="cls-1" x1="19.62" y1="18.13" x2="17.15" y2="13.86"/>
        <line class="cls-1" x1="20.58" y1="9.85" x2="19.62" y2="9.85"/>
        <line class="cls-1" x1="19.62" y1="9.85" x2="18.66" y2="9.85"/>
        <line class="cls-1" x1="34.55" y1="3.78" x2="27.55" y2="15.91"/>
        <line class="cls-1" x1="27.55" y1="15.91" x2="20.55" y2="28.04"/>
        <line class="cls-1" x1="27.1" y1="6.01" x2="19.62" y2="6.01"/>
        <line class="cls-1" x1="19.62" y1="6.01" x2="12.14" y2="6.01"/>
        <line class="cls-1" x1="27.97" y1="7.51" x2="24.23" y2="13.99"/>
        <line class="cls-1" x1="24.23" y1="13.99" x2="20.48" y2="20.47"/>
        <line class="cls-1" x1="23.04" y1="12.2" x2="25.51" y2="7.93"/>
        <line class="cls-1" x1="25.51" y1="7.93" x2="20.58" y2="7.93"/>
        <line class="cls-1" x1="21.38" y1="11.24" x2="20.9" y2="12.07"/>
        <line class="cls-1" x1="20.9" y1="12.07" x2="20.42" y2="12.9"/>
      </g>
    </g>
  </g>
</svg>