<?xml version="1.0" encoding="UTF-8"?>
<svg id="Calque_2" data-name="Calque 2" xmlns="http://www.w3.org/2000/svg" viewBox="0 0 60.78 12.22">
  <defs>
    <style>
      .cls-1 {
        fill: none;
        stroke: #1d1d1b;
        stroke-miterlimit: 10;
      }
    </style>
  </defs>
  <g id="Calque_2-2" data-name="Calque 2">
    <g id="Calque_1-2" data-name="Calque 1-2">
      <path class="cls-1" d="M56.47,11.98c-1.5-2.71-7.1-2.31-8.65-2.19-1.64,.13-6.01,1.15-9.44,1.35-3.96,.23-3.86-1.06-7.99-.88-4.13-.18-4.03,1.11-7.99,.88-3.43-.2-7.8-1.22-9.44-1.35-1.55-.12-7.15-.52-8.65,2.19M56.47,.24c-1.5,2.71-7.1,2.31-8.65,2.19-1.64-.13-6.01-1.15-9.44-1.35-3.96-.23-3.86,1.06-7.99,.88-4.13,.18-4.03-1.11-7.99-.88-3.43,.2-7.8,1.22-9.44,1.35-1.55,.13-7.15,.52-8.65-2.19M60.76,7.84c-4.13,.18-4.03-1.11-7.99-.88-3.43,.2-7.8,1.22-9.44,1.35-1.55,.12-7.15,.51-8.65-2.19,1.5-2.71,7.1-2.31,8.65-2.19,1.64,.13,6.01,1.15,9.44,1.35,3.96,.23,3.86-1.06,7.99-.88M.02,7.84c4.13,.18,4.03-1.11,7.99-.88,3.43,.2,7.8,1.22,9.44,1.35,1.55,.12,7.15,.51,8.65-2.19-1.5-2.71-7.1-2.31-8.65-2.19-1.64,.13-6.01,1.15-9.44,1.35-3.96,.21-3.86-1.08-7.99-.9"/>
    </g>
  </g>
</svg>