<?xml version="1.0" encoding="UTF-8"?>
<svg id="Calque_2" data-name="Calque 2" xmlns="http://www.w3.org/2000/svg" viewBox="0 0 61.69 16.48">
  <defs>
    <style>
      .cls-1 {
        fill: none;
        stroke: #1d1d1b;
        stroke-miterlimit: 10;
      }
    </style>
  </defs>
  <g id="Calque_2-2" data-name="Calque 2">
    <g id="Calque_1-2" data-name="Calque 1-2">
      <path class="cls-1" d="M4.19,16.37c.93-4.07,8.4-2.06,14.42-.92,4.62,.87,11.13,.76,12.25-2.75,1.12,3.51,7.63,3.63,12.25,2.75,6.02-1.14,13.48-3.15,14.42,.92M4.19,.11c.93,4.07,8.4,2.06,14.42,.92,4.61-.88,11.13-.76,12.25,2.75,1.11-3.51,7.63-3.63,12.25-2.75,6.02,1.14,13.48,3.15,14.41-.92m3.7,4.46c-1.12,3.51-7.63,3.63-12.25,2.75-6.02-1.14-13.48-3.15-14.42,.92,.93,4.07,8.4,2.06,14.42,.92,4.62-.87,11.13-.76,12.25,2.75M.48,4.57c1.12,3.51,7.63,3.63,12.25,2.75,6.02-1.14,13.48-3.15,14.42,.92-.93,4.07-8.4,2.06-14.42,.92-4.61-.88-11.13-.76-12.25,2.75"/>
    </g>
  </g>
</svg>