<?xml version="1.0" encoding="UTF-8"?>
<svg id="Calque_2" data-name="Calque 2" xmlns="http://www.w3.org/2000/svg" viewBox="0 0 60.74 10.95">
  <defs>
    <style>
      .cls-1 {
        fill: none;
        stroke: #1d1d1b;
        stroke-miterlimit: 10;
      }
    </style>
  </defs>
  <g id="Calque_2-2" data-name="Calque 2">
    <g id="Calque_1-2" data-name="Calque 1-2">
      <path class="cls-1" d="M57.62,10.92v-.47c0-.8-.65-1.45-1.45-1.45-4.27,0-8.92,1.07-13.19,1.07s-8.27-1.07-12.6-1.07-8.27,1.07-12.6,1.07-8.92-1.07-13.19-1.07c-.8,0-1.45,.65-1.45,1.45v.47M57.62,.03v.47c0,.8-.65,1.45-1.45,1.45-4.27,0-8.92-1.07-13.19-1.07s-8.27,1.07-12.6,1.07S22.1,.88,17.77,.88,8.85,1.95,4.58,1.95c-.8,0-1.45-.65-1.45-1.45V.03M60.74,3.56c-4.33,0-8.27,1.07-12.6,1.07s-8.92-1.07-13.19-1.07c-.8,0-1.45,.65-1.45,1.45v.93c0,.8,.65,1.45,1.45,1.45,4.27,0,8.92-1.07,13.19-1.07s8.27,1.07,12.6,1.07M0,3.56c4.33,0,8.27,1.07,12.6,1.07s8.92-1.07,13.19-1.07c.8,0,1.45,.65,1.45,1.45v.93c0,.8-.65,1.45-1.45,1.45-4.27,0-8.92-1.07-13.19-1.07S4.33,7.4,0,7.4"/>
    </g>
  </g>
</svg>