<?xml version="1.0" encoding="UTF-8"?>
<svg id="Calque_2" data-name="Calque 2" xmlns="http://www.w3.org/2000/svg" viewBox="0 0 297.49 92.27">
  <defs>
    <style>
      .cls-1 {
        fill: none;
        stroke: #12100b;
        stroke-linecap: round;
        stroke-linejoin: round;
        stroke-width: 0px;
      }
    </style>
  </defs>
  <g id="Calque_1-2" data-name="Calque 1">
    <line class="cls-1" x1="259.79" y1="92.27" x2="237.58" y2="92.27"/>
    <line class="cls-1" x1="274.59" y1="92.27" x2="296.8" y2="92.27"/>
    <line class="cls-1" x1="245.11" y1="85.17" x2="289.58" y2="85.17"/>
    <line class="cls-1" x1="200.56" y1="92.27" x2="178.36" y2="92.27"/>
    <line class="cls-1" x1="215.37" y1="92.27" x2="237.58" y2="92.27"/>
    <line class="cls-1" x1="185.81" y1="85.17" x2="230.28" y2="85.17"/>
    <line class="cls-1" x1="141.34" y1="92.27" x2="119.13" y2="92.27"/>
    <line class="cls-1" x1="156.15" y1="92.27" x2="178.36" y2="92.27"/>
    <line class="cls-1" x1="126.51" y1="85.17" x2="170.98" y2="85.17"/>
    <line class="cls-1" x1="82.12" y1="92.27" x2="59.91" y2="92.27"/>
    <line class="cls-1" x1="96.92" y1="92.27" x2="119.13" y2="92.27"/>
    <line class="cls-1" x1="67.21" y1="85.17" x2="111.68" y2="85.17"/>
    <line class="cls-1" x1="22.89" y1="92.27" x2=".68" y2="92.27"/>
    <line class="cls-1" x1="37.7" y1="92.27" x2="59.91" y2="92.27"/>
    <line class="cls-1" x1="7.91" y1="85.17" x2="52.38" y2="85.17"/>
    <line class="cls-1" x1="245.11" y1="85.17" x2="289.58" y2="85.17"/>
    <line class="cls-1" x1="260.02" y1="78.07" x2="237.76" y2="78.07"/>
    <line class="cls-1" x1="274.86" y1="78.07" x2="297.11" y2="78.07"/>
    <line class="cls-1" x1="245.26" y1="70.98" x2="289.81" y2="70.98"/>
    <line class="cls-1" x1="185.81" y1="85.17" x2="230.28" y2="85.17"/>
    <line class="cls-1" x1="200.67" y1="78.07" x2="178.42" y2="78.07"/>
    <line class="cls-1" x1="215.51" y1="78.07" x2="237.76" y2="78.07"/>
    <line class="cls-1" x1="185.87" y1="70.98" x2="230.41" y2="70.98"/>
    <line class="cls-1" x1="126.51" y1="85.17" x2="170.98" y2="85.17"/>
    <line class="cls-1" x1="141.33" y1="78.07" x2="119.07" y2="78.07"/>
    <line class="cls-1" x1="156.16" y1="78.07" x2="178.42" y2="78.07"/>
    <line class="cls-1" x1="126.47" y1="70.98" x2="171.02" y2="70.98"/>
    <line class="cls-1" x1="67.21" y1="85.17" x2="111.68" y2="85.17"/>
    <line class="cls-1" x1="81.98" y1="78.07" x2="59.72" y2="78.07"/>
    <line class="cls-1" x1="96.81" y1="78.07" x2="119.07" y2="78.07"/>
    <line class="cls-1" x1="67.08" y1="70.98" x2="111.62" y2="70.98"/>
    <line class="cls-1" x1="7.91" y1="85.17" x2="52.38" y2="85.17"/>
    <line class="cls-1" x1="22.63" y1="78.07" x2=".38" y2="78.07"/>
    <line class="cls-1" x1="37.47" y1="78.07" x2="59.72" y2="78.07"/>
    <line class="cls-1" x1="7.68" y1="70.98" x2="52.23" y2="70.98"/>
    <line class="cls-1" x1="245.26" y1="70.98" x2="289.81" y2="70.98"/>
    <line class="cls-1" x1="260.16" y1="63.88" x2="237.88" y2="63.88"/>
    <line class="cls-1" x1="275.02" y1="63.88" x2="297.3" y2="63.88"/>
    <line class="cls-1" x1="245.35" y1="56.78" x2="289.94" y2="56.78"/>
    <line class="cls-1" x1="185.87" y1="70.98" x2="230.41" y2="70.98"/>
    <line class="cls-1" x1="200.74" y1="63.88" x2="178.46" y2="63.88"/>
    <line class="cls-1" x1="215.59" y1="63.88" x2="237.88" y2="63.88"/>
    <line class="cls-1" x1="185.9" y1="56.78" x2="230.49" y2="56.78"/>
    <line class="cls-1" x1="126.47" y1="70.98" x2="171.02" y2="70.98"/>
    <line class="cls-1" x1="141.32" y1="63.88" x2="119.03" y2="63.88"/>
    <line class="cls-1" x1="156.17" y1="63.88" x2="178.46" y2="63.88"/>
    <line class="cls-1" x1="126.45" y1="56.78" x2="171.04" y2="56.78"/>
    <line class="cls-1" x1="67.08" y1="70.98" x2="111.62" y2="70.98"/>
    <line class="cls-1" x1="81.89" y1="63.88" x2="59.61" y2="63.88"/>
    <line class="cls-1" x1="96.75" y1="63.88" x2="119.03" y2="63.88"/>
    <line class="cls-1" x1="67" y1="56.78" x2="111.59" y2="56.78"/>
    <line class="cls-1" x1="7.68" y1="70.98" x2="52.23" y2="70.98"/>
    <line class="cls-1" x1="22.47" y1="63.88" x2=".19" y2="63.88"/>
    <line class="cls-1" x1="37.33" y1="63.88" x2="59.61" y2="63.88"/>
    <line class="cls-1" x1="7.55" y1="56.78" x2="52.14" y2="56.78"/>
    <line class="cls-1" x1="245.35" y1="56.78" x2="289.94" y2="56.78"/>
    <line class="cls-1" x1="260.24" y1="49.68" x2="237.94" y2="49.68"/>
    <line class="cls-1" x1="275.11" y1="49.68" x2="297.41" y2="49.68"/>
    <line class="cls-1" x1="245.4" y1="42.59" x2="290.01" y2="42.59"/>
    <line class="cls-1" x1="185.9" y1="56.78" x2="230.49" y2="56.78"/>
    <line class="cls-1" x1="200.77" y1="49.68" x2="178.48" y2="49.68"/>
    <line class="cls-1" x1="215.64" y1="49.68" x2="237.94" y2="49.68"/>
    <line class="cls-1" x1="185.92" y1="42.59" x2="230.53" y2="42.59"/>
    <line class="cls-1" x1="126.45" y1="56.78" x2="171.04" y2="56.78"/>
    <line class="cls-1" x1="141.31" y1="49.68" x2="119.01" y2="49.68"/>
    <line class="cls-1" x1="156.18" y1="49.68" x2="178.48" y2="49.68"/>
    <line class="cls-1" x1="126.44" y1="42.59" x2="171.05" y2="42.59"/>
    <line class="cls-1" x1="67" y1="56.78" x2="111.59" y2="56.78"/>
    <line class="cls-1" x1="81.85" y1="49.68" x2="59.55" y2="49.68"/>
    <line class="cls-1" x1="96.71" y1="49.68" x2="119.01" y2="49.68"/>
    <line class="cls-1" x1="66.96" y1="42.59" x2="111.57" y2="42.59"/>
    <line class="cls-1" x1="7.55" y1="56.78" x2="52.14" y2="56.78"/>
    <line class="cls-1" x1="22.38" y1="49.68" x2=".08" y2="49.68"/>
    <line class="cls-1" x1="37.25" y1="49.68" x2="59.55" y2="49.68"/>
    <line class="cls-1" x1="7.48" y1="42.59" x2="52.09" y2="42.59"/>
    <line class="cls-1" x1="245.4" y1="42.59" x2="290.01" y2="42.59"/>
    <line class="cls-1" x1="260.28" y1="35.49" x2="237.97" y2="35.49"/>
    <line class="cls-1" x1="275.15" y1="35.49" x2="297.46" y2="35.49"/>
    <line class="cls-1" x1="245.42" y1="28.39" x2="290.04" y2="28.39"/>
    <line class="cls-1" x1="185.92" y1="42.59" x2="230.53" y2="42.59"/>
    <line class="cls-1" x1="200.79" y1="35.49" x2="178.49" y2="35.49"/>
    <line class="cls-1" x1="215.66" y1="35.49" x2="237.97" y2="35.49"/>
    <line class="cls-1" x1="185.93" y1="28.39" x2="230.55" y2="28.39"/>
    <line class="cls-1" x1="126.44" y1="42.59" x2="171.05" y2="42.59"/>
    <line class="cls-1" x1="141.31" y1="35.49" x2="119" y2="35.49"/>
    <line class="cls-1" x1="156.18" y1="35.49" x2="178.49" y2="35.49"/>
    <line class="cls-1" x1="126.43" y1="28.39" x2="171.05" y2="28.39"/>
    <line class="cls-1" x1="66.96" y1="42.59" x2="111.57" y2="42.59"/>
    <line class="cls-1" x1="81.82" y1="35.49" x2="59.51" y2="35.49"/>
    <line class="cls-1" x1="96.69" y1="35.49" x2="119" y2="35.49"/>
    <line class="cls-1" x1="66.94" y1="28.39" x2="111.56" y2="28.39"/>
    <line class="cls-1" x1="7.48" y1="42.59" x2="52.09" y2="42.59"/>
    <line class="cls-1" x1="22.34" y1="35.49" x2=".03" y2="35.49"/>
    <line class="cls-1" x1="37.21" y1="35.49" x2="59.51" y2="35.49"/>
    <line class="cls-1" x1="7.45" y1="28.39" x2="52.07" y2="28.39"/>
    <line class="cls-1" x1="245.42" y1="28.39" x2="290.04" y2="28.39"/>
    <line class="cls-1" x1="260.3" y1="21.29" x2="237.99" y2="21.29"/>
    <line class="cls-1" x1="275.17" y1="21.29" x2="297.48" y2="21.29"/>
    <line class="cls-1" x1="245.43" y1="14.2" x2="290.05" y2="14.2"/>
    <line class="cls-1" x1="185.93" y1="28.39" x2="230.55" y2="28.39"/>
    <line class="cls-1" x1="200.8" y1="21.29" x2="178.49" y2="21.29"/>
    <line class="cls-1" x1="215.67" y1="21.29" x2="237.99" y2="21.29"/>
    <line class="cls-1" x1="185.93" y1="14.2" x2="230.55" y2="14.2"/>
    <line class="cls-1" x1="126.43" y1="28.39" x2="171.05" y2="28.39"/>
    <line class="cls-1" x1="141.31" y1="21.29" x2="119" y2="21.29"/>
    <line class="cls-1" x1="156.18" y1="21.29" x2="178.49" y2="21.29"/>
    <line class="cls-1" x1="126.43" y1="14.2" x2="171.05" y2="14.2"/>
    <line class="cls-1" x1="66.94" y1="28.39" x2="111.56" y2="28.39"/>
    <line class="cls-1" x1="81.81" y1="21.29" x2="59.5" y2="21.29"/>
    <line class="cls-1" x1="96.69" y1="21.29" x2="119" y2="21.29"/>
    <line class="cls-1" x1="66.94" y1="14.2" x2="111.56" y2="14.2"/>
    <line class="cls-1" x1="7.45" y1="28.39" x2="52.07" y2="28.39"/>
    <line class="cls-1" x1="22.32" y1="21.29" x2="0" y2="21.29"/>
    <line class="cls-1" x1="37.19" y1="21.29" x2="59.5" y2="21.29"/>
    <line class="cls-1" x1="7.44" y1="14.2" x2="52.06" y2="14.2"/>
    <line class="cls-1" x1="245.43" y1="14.2" x2="290.05" y2="14.2"/>
    <line class="cls-1" x1="260.3" y1="7.1" x2="237.99" y2="7.1"/>
    <line class="cls-1" x1="275.17" y1="7.1" x2="297.49" y2="7.1"/>
    <line class="cls-1" x1="245.43" y1="0" x2="290.05" y2="0"/>
    <line class="cls-1" x1="185.93" y1="14.2" x2="230.55" y2="14.2"/>
    <line class="cls-1" x1="200.8" y1="7.1" x2="178.49" y2="7.1"/>
    <line class="cls-1" x1="215.68" y1="7.1" x2="237.99" y2="7.1"/>
    <line class="cls-1" x1="185.93" y1="0" x2="230.55" y2="0"/>
    <line class="cls-1" x1="126.43" y1="14.2" x2="171.05" y2="14.2"/>
    <line class="cls-1" x1="141.31" y1="7.1" x2="119" y2="7.1"/>
    <line class="cls-1" x1="156.18" y1="7.1" x2="178.49" y2="7.1"/>
    <line class="cls-1" x1="126.43" y1="0" x2="171.05" y2="0"/>
    <line class="cls-1" x1="66.94" y1="14.2" x2="111.56" y2="14.2"/>
    <line class="cls-1" x1="81.81" y1="7.1" x2="59.5" y2="7.1"/>
    <line class="cls-1" x1="96.68" y1="7.1" x2="119" y2="7.1"/>
    <line class="cls-1" x1="66.93" y1="0" x2="111.56" y2="0"/>
    <line class="cls-1" x1="7.44" y1="14.2" x2="52.06" y2="14.2"/>
    <line class="cls-1" x1="22.31" y1="7.1" x2="0" y2="7.1"/>
    <line class="cls-1" x1="37.19" y1="7.1" x2="59.5" y2="7.1"/>
    <line class="cls-1" x1="7.44" y1="0" x2="52.06" y2="0"/>
  </g>
</svg>