<?xml version="1.0" encoding="UTF-8"?>
<svg id="Calque_2" data-name="Calque 2" xmlns="http://www.w3.org/2000/svg" viewBox="0 0 60.75 16.26">
  <defs>
    <style>
      .cls-1, .cls-2 {
        fill: none;
      }

      .cls-2 {
        stroke: red;
        stroke-miterlimit: 22.93;
        stroke-width: 0px;
      }
    </style>
  </defs>
  <g id="Calque_1-2" data-name="Calque 1">
    <g>
      <rect class="cls-1" width="60.75" height="16.26"/>
      <path class="cls-2" d="M3.71,16.26c.93-4.07,8.4-2.06,14.42-.92,4.62,.87,11.13,.76,12.25-2.75,1.12,3.51,7.63,3.63,12.25,2.75,6.02-1.14,13.48-3.15,14.42,.92M3.71,0c.93,4.07,8.4,2.06,14.42,.92C22.74,.04,29.26,.16,30.38,3.67,31.49,.16,38.01,.04,42.63,.92,48.65,2.06,56.11,4.07,57.04,0m3.7,4.46c-1.12,3.51-7.63,3.63-12.25,2.75-6.02-1.14-13.48-3.15-14.42,.92,.93,4.07,8.4,2.06,14.42,.92,4.62-.87,11.13-.76,12.25,2.75M0,4.46c1.12,3.51,7.63,3.63,12.25,2.75,6.02-1.14,13.48-3.15,14.42,.92-.93,4.07-8.4,2.06-14.42,.92C7.64,8.17,1.12,8.29,0,11.8"/>
    </g>
  </g>
</svg>