<?xml version="1.0" encoding="UTF-8"?>
<svg id="Calque_2" data-name="Calque 2" xmlns="http://www.w3.org/2000/svg" viewBox="0 0 60.75 47.07">
  <defs>
    <style>
      .cls-1, .cls-2 {
        fill: none;
      }

      .cls-2 {
        stroke: red;
        stroke-miterlimit: 22.93;
        stroke-width: 0px;
      }
    </style>
  </defs>
  <g id="Calque_1-2" data-name="Calque 1">
    <g>
      <rect class="cls-1" width="60.75" height="47.07"/>
      <path class="cls-2" d="M58.6,47.07c-.45-3.15-13.92-1.86-14.11-1.85-8.66,.56-11.73,.7-14.11-1.85-2.38,2.54-5.46,2.41-14.11,1.85-.19-.01-13.66-1.3-14.11,1.85m56.44-15.69c-.45,3.15-13.92,1.86-14.11,1.85-8.66-.56-11.73-.7-14.11,1.85-2.38-2.54-5.46-2.41-14.11-1.85-.19,.01-13.66,1.3-14.11-1.85m58.59,4.15c-2.38,2.54-5.45,2.41-14.11,1.85-.19-.01-13.66-1.3-14.11,1.85,.45,3.15,13.92,1.86,14.11,1.85,8.66-.56,11.73-.7,14.11,1.85M0,35.53c2.38,2.54,5.45,2.41,14.11,1.85,.19-.01,13.66-1.3,14.11,1.85-.45,3.15-13.92,1.86-14.11,1.85-8.66-.56-11.73-.7-14.11,1.85"/>
      <path class="cls-2" d="M58.6,31.38c-.45-3.15-13.92-1.86-14.11-1.85-8.66,.56-11.73,.7-14.11-1.85-2.38,2.54-5.46,2.41-14.11,1.85-.19-.01-13.66-1.3-14.11,1.85M58.6,15.69c-.45,3.15-13.92,1.86-14.11,1.85-8.66-.56-11.73-.7-14.11,1.85-2.38-2.54-5.46-2.41-14.11-1.85-.19,.01-13.66,1.3-14.11-1.85m58.59,4.15c-2.38,2.54-5.45,2.41-14.11,1.85-.19-.01-13.66-1.3-14.11,1.85,.45,3.15,13.92,1.86,14.11,1.85,8.66-.56,11.73-.7,14.11,1.85M0,19.84c2.38,2.54,5.45,2.41,14.11,1.85,.19-.01,13.66-1.3,14.11,1.85-.45,3.15-13.92,1.86-14.11,1.85C5.46,24.82,2.38,24.68,0,27.23"/>
      <path class="cls-2" d="M58.6,15.69c-.45-3.15-13.92-1.86-14.11-1.85-8.66,.56-11.73,.7-14.11-1.85-2.38,2.54-5.46,2.41-14.11,1.85-.19-.01-13.66-1.3-14.11,1.85M58.6,0c-.45,3.15-13.92,1.86-14.11,1.85-8.66-.56-11.73-.7-14.11,1.85-2.38-2.54-5.46-2.41-14.11-1.85C16.07,1.86,2.61,3.15,2.15,0M60.75,4.15c-2.38,2.54-5.45,2.41-14.11,1.85-.19-.01-13.66-1.3-14.11,1.85,.45,3.15,13.92,1.86,14.11,1.85,8.66-.56,11.73-.7,14.11,1.85M0,4.15c2.38,2.54,5.45,2.41,14.11,1.85,.19-.01,13.66-1.3,14.11,1.85-.45,3.15-13.92,1.86-14.11,1.85C5.46,9.13,2.38,8.99,0,11.54"/>
    </g>
  </g>
</svg>