<?xml version="1.0" encoding="UTF-8"?>
<svg id="Calque_2" data-name="Calque 2" xmlns="http://www.w3.org/2000/svg" viewBox="0 0 60.74 11.74">
  <defs>
    <style>
      .cls-1, .cls-2 {
        fill: none;
      }

      .cls-2 {
        stroke: red;
        stroke-miterlimit: 22.93;
        stroke-width: 0px;
      }
    </style>
  </defs>
  <g id="Calque_1-2" data-name="Calque 1">
    <g>
      <rect class="cls-1" width="60.74" height="11.74"/>
      <path class="cls-2" d="M56.45,11.74c-1.5-2.71-7.1-2.31-8.65-2.19-1.64,.13-6.01,1.15-9.44,1.35-3.96,.23-3.86-1.06-7.99-.88-4.13-.18-4.03,1.11-7.99,.88-3.43-.2-7.8-1.22-9.44-1.35-1.55-.12-7.15-.52-8.65,2.19M56.45,0c-1.5,2.71-7.1,2.31-8.65,2.19-1.64-.13-6.01-1.15-9.44-1.35-3.96-.23-3.86,1.06-7.99,.88-4.13,.18-4.03-1.11-7.99-.88-3.43,.2-7.8,1.22-9.44,1.35C11.39,2.32,5.79,2.71,4.29,0M60.74,7.6c-4.13,.18-4.03-1.11-7.99-.88-3.43,.2-7.8,1.22-9.44,1.35-1.55,.12-7.15,.51-8.65-2.19,1.5-2.71,7.1-2.31,8.65-2.19,1.64,.13,6.01,1.15,9.44,1.35,3.96,.23,3.86-1.06,7.99-.88M0,7.6c4.13,.18,4.03-1.11,7.99-.88,3.43,.2,7.8,1.22,9.44,1.35,1.55,.12,7.15,.51,8.65-2.19-1.5-2.71-7.1-2.31-8.65-2.19-1.64,.13-6.01,1.15-9.44,1.35C4.03,5.25,4.13,3.96,0,4.14"/>
    </g>
  </g>
</svg>