<?xml version="1.0" encoding="UTF-8"?>
<svg id="Calque_2" data-name="Calque 2" xmlns="http://www.w3.org/2000/svg" viewBox="0 0 60.74 16.89">
  <defs>
    <style>
      .cls-1, .cls-2 {
        fill: none;
      }

      .cls-2 {
        stroke: red;
        stroke-miterlimit: 22.93;
        stroke-width: 0px;
      }
    </style>
  </defs>
  <g id="Calque_1-2" data-name="Calque 1">
    <g>
      <rect class="cls-1" width="60.74" height="16.89"/>
      <path class="cls-2" d="M0,14.98c2.18,0,3.95,.85,3.95,1.91m56.79-1.91c-2.18,0-3.95,.85-3.95,1.91m-3.14,0v-.11c0-1.08-1.71-1.98-4.13-2.18l-7.51-.63-11.64-.97-11.64,.97-7.51,.63c-2.42,.2-4.13,1.11-4.13,2.18v.11M0,1.91c2.18,0,3.95-.85,3.95-1.91M60.74,1.91c-2.18,0-3.95-.85-3.95-1.91m-3.14,0V.11c0,1.08-1.71,1.98-4.13,2.18l-7.51,.63-11.64,.97-11.64-.97-7.51-.63c-2.42-.2-4.13-1.11-4.13-2.18v-.11M60.74,4.55l-11.64,.97-7.51,.63c-2.42,.2-4.13,1.11-4.13,2.18v.22c0,1.08,1.71,1.98,4.13,2.18l7.51,.63,11.64,.97m-26.42-3.89c0,1.05-1.77,1.91-3.95,1.91s-3.95-.85-3.95-1.91,1.77-1.91,3.95-1.91,3.95,.85,3.95,1.91ZM0,12.34l11.64-.97,7.51-.63c2.42-.2,4.13-1.11,4.13-2.18v-.22c0-1.08-1.71-1.98-4.13-2.18l-7.51-.63L0,4.55"/>
    </g>
  </g>
</svg>