<?xml version="1.0" encoding="UTF-8"?>
<svg id="Calque_2" data-name="Calque 2" xmlns="http://www.w3.org/2000/svg" viewBox="0 0 60.74 18.32">
  <defs>
    <style>
      .cls-1, .cls-2 {
        fill: none;
      }

      .cls-2 {
        stroke: red;
        stroke-miterlimit: 22.93;
        stroke-width: 0px;
      }
    </style>
  </defs>
  <g id="Calque_1-2" data-name="Calque 1">
    <g>
      <rect class="cls-1" width="60.74" height="18.32"/>
      <path class="cls-2" d="M0,5.66l19.15,1.44c2.62,.2,4.13,1.04,4.13,2.06s-1.51,1.87-4.13,2.06L0,12.67m7.09,5.66v-.1c0-.97,1.71-1.78,4.13-1.97l18.2-1.37c.66-.05,1.25-.05,1.91,0l18.2,1.37c2.42,.18,4.13,1,4.13,1.97v.1m7.09-5.66l-19.15-1.44c-2.62-.2-4.13-1.04-4.13-2.06s1.51-1.87,4.13-2.06l19.15-1.44M53.66,0c0,1.02-1.51,1.87-4.13,2.06l-18.2,1.37c-.66,.05-1.25,.05-1.91,0L11.22,2.06c-2.62-.2-4.13-1.04-4.13-2.06"/>
    </g>
  </g>
</svg>