<?xml version="1.0" encoding="UTF-8"?>
<svg id="Calque_2" data-name="Calque 2" xmlns="http://www.w3.org/2000/svg" viewBox="0 0 60.75 18.42">
  <defs>
    <style>
      .cls-1, .cls-2 {
        fill: none;
      }

      .cls-2 {
        stroke: red;
        stroke-miterlimit: 22.93;
        stroke-width: 0px;
      }
    </style>
  </defs>
  <g id="Calque_1-2" data-name="Calque 1">
    <g>
      <rect class="cls-1" width="60.75" height="18.42"/>
      <path class="cls-2" d="M57.85,18.41c-.76-2.94-5.14-2.14-9.77-1.9-2.46,.13-4.92-1.19-7.92-1.31-3.01-.12-8.27,.74-9.78-1.48-1.51,2.22-6.78,1.36-9.78,1.48-3.01,.12-5.46,1.44-7.92,1.31-4.63-.24-9.01-1.04-9.77,1.9M57.85,0c-.76,2.94-5.14,2.14-9.77,1.9-2.46-.13-4.92,1.19-7.92,1.31-3.01,.12-8.27-.74-9.78,1.48-1.51-2.22-6.78-1.36-9.78-1.48s-5.46-1.44-7.92-1.31C8.04,2.14,3.66,2.94,2.9,0M60.75,4.52c-1.51,2.22-6.78,1.36-9.78,1.48-3.01,.12-5.46,1.44-7.92,1.31-4.63-.24-9.01-1.04-9.77,1.9,.76,2.94,5.14,2.14,9.77,1.9,2.46-.13,4.92,1.19,7.92,1.31,3.01,.12,8.27-.74,9.78,1.48M0,4.52c1.51,2.22,6.78,1.36,9.78,1.48,3.01,.12,5.46,1.44,7.92,1.31,4.63-.24,9.01-1.04,9.77,1.9-.76,2.94-5.14,2.14-9.77,1.9-2.46-.13-4.92,1.19-7.92,1.31-3.01,.12-8.27-.74-9.78,1.48"/>
    </g>
  </g>
</svg>