<?xml version="1.0" encoding="UTF-8"?>
<svg id="Calque_2" data-name="Calque 2" xmlns="http://www.w3.org/2000/svg" viewBox="0 0 38.38 33.23">
  <defs>
    <style>
      .cls-1, .cls-2 {
        fill: none;
      }

      .cls-2 {
        stroke: red;
        stroke-linecap: round;
        stroke-linejoin: round;
        stroke-width: 0px;
      }
    </style>
  </defs>
  <g id="Calque_1-2" data-name="Calque 1">
    <g>
      <rect class="cls-1" width="38.38" height="33.23"/>
      <line class="cls-2" x1="38.37" y1="23.64" x2="37.41" y2="23.64"/>
      <line class="cls-2" x1="38.37" y1="27.48" x2="30.89" y2="27.48"/>
      <line class="cls-2" x1="38.37" y1="31.31" x2="24.37" y2="31.31"/>
      <line class="cls-2" x1="28.3" y1="17.45" x2="19.19" y2="33.23"/>
      <line class="cls-2" x1="19.19" y1="33.23" x2="37.41" y2="33.23"/>
      <line class="cls-2" x1="38.37" y1="0" x2="29.26" y2="15.79"/>
      <line class="cls-2" x1="37.41" y1="25.56" x2="32.48" y2="25.56"/>
      <line class="cls-2" x1="32.48" y1="25.56" x2="34.95" y2="21.28"/>
      <line class="cls-2" x1="37.56" y1="20.58" x2="37.09" y2="21.41"/>
      <line class="cls-2" x1="37.09" y1="21.41" x2="36.61" y2="22.24"/>
      <line class="cls-2" x1="37.44" y1="5.45" x2="30.44" y2="17.58"/>
      <line class="cls-2" x1="30.44" y1="17.58" x2="23.44" y2="29.7"/>
      <line class="cls-2" x1="37.5" y1="13.02" x2="33.76" y2="19.5"/>
      <line class="cls-2" x1="33.76" y1="19.5" x2="30.02" y2="25.97"/>
      <line class="cls-2" x1="37.41" y1="29.39" x2="25.83" y2="29.39"/>
      <line class="cls-2" x1="25.83" y1="29.39" x2="31.62" y2="19.37"/>
      <line class="cls-2" x1="32.58" y1="17.71" x2="38.37" y2="7.68"/>
      <line class="cls-2" x1="35.9" y1="19.62" x2="38.37" y2="15.35"/>
      <line class="cls-2" x1="10.08" y1="17.45" x2="19.19" y2="33.23"/>
      <line class="cls-2" x1="19.19" y1="33.23" x2=".96" y2="33.23"/>
      <line class="cls-2" x1="9.12" y1="15.79" x2="0" y2="0"/>
      <line class="cls-2" x1="0" y1="15.35" x2="2.47" y2="19.62"/>
      <line class="cls-2" x1="0" y1="7.68" x2="5.79" y2="17.71"/>
      <line class="cls-2" x1=".96" y1="29.39" x2="12.54" y2="29.39"/>
      <line class="cls-2" x1="12.54" y1="29.39" x2="6.75" y2="19.37"/>
      <line class="cls-2" x1="14.94" y1="29.7" x2="7.94" y2="17.58"/>
      <line class="cls-2" x1="7.94" y1="17.58" x2=".93" y2="5.45"/>
      <line class="cls-2" x1="1.77" y1="22.24" x2="1.29" y2="21.41"/>
      <line class="cls-2" x1="1.29" y1="21.41" x2=".81" y2="20.58"/>
      <line class="cls-2" x1="14.01" y1="31.31" x2="0" y2="31.31"/>
      <line class="cls-2" x1="8.35" y1="25.97" x2="4.61" y2="19.5"/>
      <line class="cls-2" x1="4.61" y1="19.5" x2=".87" y2="13.02"/>
      <line class="cls-2" x1="7.49" y1="27.48" x2="0" y2="27.48"/>
      <line class="cls-2" x1=".96" y1="25.56" x2="5.9" y2="25.56"/>
      <line class="cls-2" x1="5.9" y1="25.56" x2="3.43" y2="21.28"/>
      <line class="cls-2" x1=".96" y1="23.64" x2="0" y2="23.64"/>
      <line class="cls-2" x1="15.76" y1="11.95" x2="13.3" y2="7.68"/>
      <line class="cls-2" x1="13.3" y1="7.68" x2="18.23" y2="7.68"/>
      <line class="cls-2" x1="12.44" y1="13.87" x2="6.65" y2="3.84"/>
      <line class="cls-2" x1="6.65" y1="3.84" x2="18.23" y2="3.84"/>
      <line class="cls-2" x1="25.94" y1="13.87" x2="31.72" y2="3.84"/>
      <line class="cls-2" x1="31.72" y1="3.84" x2="20.15" y2="3.84"/>
      <line class="cls-2" x1="24.98" y1="15.53" x2="19.19" y2="25.56"/>
      <line class="cls-2" x1="19.19" y1="25.56" x2="13.4" y2="15.53"/>
      <line class="cls-2" x1="33.19" y1="1.92" x2="19.19" y2="1.92"/>
      <line class="cls-2" x1="19.19" y1="1.92" x2="5.18" y2="1.92"/>
      <line class="cls-2" x1="10.84" y1="7.26" x2="14.58" y2="13.74"/>
      <line class="cls-2" x1="14.58" y1="13.74" x2="18.32" y2="20.22"/>
      <line class="cls-2" x1="4.26" y1="3.53" x2="11.26" y2="15.66"/>
      <line class="cls-2" x1="11.26" y1="15.66" x2="18.26" y2="27.79"/>
      <line class="cls-2" x1="17.42" y1="10.99" x2="17.9" y2="11.82"/>
      <line class="cls-2" x1="17.9" y1="11.82" x2="18.38" y2="12.65"/>
      <line class="cls-2" x1="21.65" y1="13.61" x2="19.19" y2="17.88"/>
      <line class="cls-2" x1="19.19" y1="17.88" x2="16.72" y2="13.61"/>
      <line class="cls-2" x1="20.15" y1="9.6" x2="19.19" y2="9.6"/>
      <line class="cls-2" x1="19.19" y1="9.6" x2="18.23" y2="9.6"/>
      <line class="cls-2" x1="34.12" y1="3.53" x2="27.12" y2="15.66"/>
      <line class="cls-2" x1="27.12" y1="15.66" x2="20.12" y2="27.79"/>
      <line class="cls-2" x1="26.67" y1="5.76" x2="19.19" y2="5.76"/>
      <line class="cls-2" x1="19.19" y1="5.76" x2="11.71" y2="5.76"/>
      <line class="cls-2" x1="27.54" y1="7.26" x2="23.8" y2="13.74"/>
      <line class="cls-2" x1="23.8" y1="13.74" x2="20.05" y2="20.22"/>
      <line class="cls-2" x1="22.61" y1="11.95" x2="25.08" y2="7.68"/>
      <line class="cls-2" x1="25.08" y1="7.68" x2="20.15" y2="7.68"/>
      <line class="cls-2" x1="20.95" y1="10.99" x2="20.47" y2="11.82"/>
      <line class="cls-2" x1="20.47" y1="11.82" x2="19.99" y2="12.65"/>
    </g>
  </g>
</svg>