<?xml version="1.0" encoding="UTF-8"?>
<svg id="Calque_2" data-name="Calque 2" xmlns="http://www.w3.org/2000/svg" viewBox="0 0 60.74 10.89">
  <defs>
    <style>
      .cls-1, .cls-2 {
        fill: none;
      }

      .cls-2 {
        stroke: red;
        stroke-miterlimit: 22.93;
        stroke-width: 0px;
      }
    </style>
  </defs>
  <g id="Calque_1-2" data-name="Calque 1">
    <g>
      <rect class="cls-1" width="60.74" height="10.89"/>
      <path class="cls-2" d="M57.62,10.89v-.47c0-.8-.65-1.45-1.45-1.45-4.27,0-8.92,1.07-13.19,1.07s-8.27-1.07-12.6-1.07-8.27,1.07-12.6,1.07-8.92-1.07-13.19-1.07c-.8,0-1.45,.65-1.45,1.45v.47M57.62,0V.47c0,.8-.65,1.45-1.45,1.45-4.27,0-8.92-1.07-13.19-1.07s-8.27,1.07-12.6,1.07S22.1,.85,17.77,.85,8.85,1.92,4.58,1.92c-.8,0-1.45-.65-1.45-1.45v-.47M60.74,3.53c-4.33,0-8.27,1.07-12.6,1.07s-8.92-1.07-13.19-1.07c-.8,0-1.45,.65-1.45,1.45v.93c0,.8,.65,1.45,1.45,1.45,4.27,0,8.92-1.07,13.19-1.07s8.27,1.07,12.6,1.07M0,3.53c4.33,0,8.27,1.07,12.6,1.07s8.92-1.07,13.19-1.07c.8,0,1.45,.65,1.45,1.45v.93c0,.8-.65,1.45-1.45,1.45-4.27,0-8.92-1.07-13.19-1.07S4.33,7.37,0,7.37"/>
    </g>
  </g>
</svg>